<svg xmlns="http://www.w3.org/2000/svg" width="32" height="46" viewBox="0 0 32 46">
  <g fill="none">
    <g transform="rotate(90 13.862 16.094)">
      <path fill="#AE71FA" d="M21.6638037,4.10631288 L28.1846233,15.4007038 C30.3118946,19.0852458 29.0494773,23.7966513 25.3649354,25.9239225 C24.1938507,26.6000486 22.8654221,26.956 21.51317,26.956 L8.47153076,26.956 C4.2169882,26.956 0.768,23.5070118 0.768,19.2524692 C0.768,17.9002171 1.12395138,16.5717885 1.80007743,15.4007038 L8.32089708,4.10631288 C10.4481684,0.421770949 15.1595738,-0.84064635 18.8441157,1.28662493 C20.0152004,1.96275097 20.9876777,2.93522823 21.6638037,4.10631288 L21.6638037,4.10631288 Z"/>
      <path fill="#FFD238" d="M33.6638037,4.10631288 L40.1846234,15.4007038 C42.3118946,19.0852458 41.0494773,23.7966513 37.3649354,25.9239225 C36.1938507,26.6000486 34.8654221,26.956 33.51317,26.956 L20.4715307,26.956 C16.2169882,26.956 12.768,23.5070118 12.768,19.2524692 C12.768,17.9002171 13.1239513,16.5717885 13.8000774,15.4007038 L20.320897,4.10631288 C22.4481683,0.421770949 27.1595738,-0.84064635 30.8441157,1.28662493 C32.0152004,1.96275097 32.9876777,2.93522823 33.6638037,4.10631288 Z"/>
      <path fill="#FF4296" d="M30.4622145,18.3946171 C31.3944779,19.9649747 30.0454154,24.7322178 28.4306878,25.6388642 C27.9174673,25.9270301 26.9917772,26.956 26.3991611,26.956 L15.5643519,26.956 C13.6998251,26.956 11.5012985,24.1593173 11.5012985,22.3460246 C11.5012985,21.7696926 10.5278149,19.5523032 10.8241229,19.053185 L21.0516853,2.956 L30.4622145,18.3946171 Z"/>
    </g>
    <path fill="#710377" d="M22.6610229,19.9737345 C21.9858617,18.8175148 21.0147723,17.8573814 19.8453588,17.1898377 C16.1660749,15.0895684 11.4613929,16.3359615 9.33715736,19.9737345 L3.23582847,30.4223169 C2.56066725,31.5785366 2.20522381,32.8901032 2.20522381,34.2251907 C2.20522381,38.4257292 5.64929009,41.8309384 9.8977612,41.8309384 L22.1004191,41.8309384 C23.4507414,41.8309384 24.7772743,41.4795052 25.9466878,40.8119615 C29.6259716,38.7116922 30.8865873,34.0600899 28.7623518,30.4223169 L22.6610229,19.9737345 Z M25.4368282,18.3892038 L31.5381572,28.8377861 C34.5474908,33.9912979 32.7616185,40.5810679 27.5492997,43.5564493 C25.8926306,44.5021363 24.0133758,45 22.1004191,45 L9.8977612,45 C3.87909388,45 -1,40.1759536 -1,34.2251907 C-1,32.3338167 -0.496455216,30.4757641 0.46002308,28.8377861 L6.56135206,18.3892038 C9.57068572,13.235692 16.2356519,11.4699684 21.4479708,14.4453498 C23.1046398,15.3910369 24.4803499,16.7512258 25.4368282,18.3892038 Z" transform="rotate(90 16 29)"/>
    <path fill="#710377" d="M22.6610229,7.97373452 C21.9858618,6.81751478 21.0147723,5.85738144 19.8453589,5.18983765 C16.166075,3.08956841 11.4613929,4.3359615 9.33715737,7.97373452 L3.23582848,18.4223169 C2.56066731,19.5785366 2.20522389,20.8901032 2.20522389,22.2251907 C2.20522389,26.4257292 5.64929017,29.8309384 9.89776121,29.8309384 L22.1004191,29.8309384 C23.4507414,29.8309384 24.7772744,29.4795052 25.9466878,28.8119615 C29.6259716,26.7116922 30.8865873,22.0600899 28.7623519,18.4223169 L22.6610229,7.97373452 Z M31.5381572,16.8377861 C34.5474908,21.9912979 32.7616185,28.5810679 27.5492998,31.5564493 C25.8926307,32.5021363 24.0133758,33 22.1004191,33 L9.89776121,33 C3.87909389,33 -1,28.1759536 -1,22.2251907 C-1,20.3338167 -0.496455163,18.4757641 0.460023163,16.8377861 L6.56135209,6.38920375 C9.57068573,1.23569197 16.235652,-0.530031571 21.4479708,2.44534985 C23.1046398,3.39103687 24.4803499,4.75122576 25.4368282,6.38920375 L31.5381572,16.8377861 Z" transform="rotate(90 16 17)"/>
  </g>
</svg>
